<svg xmlns="http://www.w3.org/2000/svg" viewBox="0 0 400 400">
  <!-- Male Silhouette with messy/styled hair and distinct shoulders -->
  <path d="M200 40 C160 40 135 70 135 115 C135 125 137 135 140 145 C135 155 130 165 140 175 C145 180 155 180 160 190 C160 210 165 240 165 250 C140 260 90 280 80 340 C75 370 70 400 70 400 L330 400 C330 400 325 370 320 340 C310 280 260 260 235 250 C235 240 240 210 240 190 C245 180 255 180 260 175 C270 165 265 155 260 145 C263 135 265 125 265 115 C265 70 240 40 200 40 Z" fill="#222222"/>
  
  <text x="200" y="340" font-family="system-ui, -apple-system, sans-serif" font-size="52" font-weight="900" fill="#c084fc" text-anchor="middle" letter-spacing="12">SOON</text>
</svg>
