<?xml version="1.0" encoding="UTF-8"?>
<svg version="1.1" xmlns="http://www.w3.org/2000/svg" width="644" height="644">
<path d="M0 0 C4.45200126 3.96604337 6.86541312 8.06668507 9.5 13.375 C13.26794842 20.74944409 17.20490169 27.99674332 21.3125 35.1875 C25.80696845 43.07399514 30.19952007 51.00607516 34.5 59 C39.22520653 67.77609188 44.06278344 76.47944144 48.984375 85.14672852 C58.65112107 102.17771968 68.12011232 119.31608616 77.42431641 136.54760742 C83.38159111 147.57476533 89.36663958 158.58739963 95.75 169.375 C98.53487458 174.11188948 101.05291514 178.93271635 103.4609375 183.87109375 C104.5404449 186.06572681 105.65282165 188.24435219 106.7890625 190.41015625 C120.24025953 216.2536263 121.26175567 244.74555563 112.9375 272.375 C105.83235779 292.371508 94.29862142 308.48666903 79 323 C83.90525462 333.21063574 89.25229279 343.10666958 94.86791992 352.94360352 C98.84010984 359.91326513 102.70122432 366.93446108 106.5 374 C110.72137792 381.84567806 115.02816728 389.63342857 119.4375 397.375 C123.99454901 405.38887919 128.47069975 413.44274123 132.85842896 421.550354 C133.79750196 423.28479899 134.74039559 425.01717364 135.68334961 426.74951172 C136.53038452 428.32176514 136.53038452 428.32176514 137.39453125 429.92578125 C137.89831299 430.85817627 138.40209473 431.79057129 138.92114258 432.7512207 C140 435 140 435 140 437 C118.22 437 96.44 437 74 437 C66.58462298 423.88048681 59.22653376 410.78395928 52.0390625 397.546875 C48.34821565 390.78072319 44.54716808 384.07786525 40.7434082 377.37475586 C35.77280652 368.61407983 30.87480557 359.81426469 26 351 C25.10522949 351.09849243 25.10522949 351.09849243 24.19238281 351.19897461 C13.07118369 352.27838511 1.91403749 352.34837841 -9.25 352.5625 C-11.36328829 352.60577719 -13.47656966 352.64939412 -15.58984375 352.69335938 C-20.72649095 352.79949206 -25.8632102 352.90101973 -31 353 C-31.2781958 353.89299805 -31.5563916 354.78599609 -31.84301758 355.70605469 C-32.8628499 358.60953172 -33.98956339 361.0429174 -35.51171875 363.703125 C-36.01429199 364.58709961 -36.51686523 365.47107422 -37.03466797 366.38183594 C-37.58010254 367.32833008 -38.12553711 368.27482422 -38.6875 369.25 C-39.54819092 370.75868652 -39.54819092 370.75868652 -40.42626953 372.29785156 C-45.32828721 380.87605227 -50.28618944 389.42234715 -55.24169922 397.96972656 C-58.61837423 403.81098118 -61.9486738 409.67456749 -65.21484375 415.578125 C-65.55992981 416.20176941 -65.90501587 416.82541382 -66.26055908 417.46795654 C-67.93103984 420.49057614 -69.59561557 423.51630765 -71.25341797 426.54589844 C-71.84654785 427.62387695 -72.43967773 428.70185547 -73.05078125 429.8125 C-73.57325439 430.76769531 -74.09572754 431.72289062 -74.6340332 432.70703125 C-76 435 -76 435 -78 437 C-80.74612427 437.24050903 -80.74612427 437.24050903 -84.28564453 437.22705078 C-84.92967224 437.22734283 -85.57369995 437.22763489 -86.23724365 437.22793579 C-88.36923627 437.22654074 -90.50088082 437.21097174 -92.6328125 437.1953125 C-94.10968841 437.19158298 -95.58656678 437.18873572 -97.06344604 437.18673706 C-100.95317398 437.17909574 -104.84275288 437.15944308 -108.73242188 437.1373291 C-112.70050032 437.11688135 -116.66860282 437.10773764 -120.63671875 437.09765625 C-128.42454716 437.07619756 -136.21225271 437.04205572 -144 437 C-142.33691797 432.7475337 -140.38701 428.71905986 -138.25 424.6875 C-137.86368408 423.95748779 -137.47736816 423.22747559 -137.0793457 422.4753418 C-133.04508949 414.94259855 -128.70773742 407.59280098 -124.37280273 400.23046875 C-119.86902345 392.55704972 -115.56750102 384.79223375 -111.34204102 376.96289062 C-107.62890298 370.10096668 -103.7774787 363.33044726 -99.82739258 356.60229492 C-94.62940641 347.73169782 -89.80892193 338.6568713 -84.94995117 329.59765625 C-79.58779364 319.60275506 -74.18185427 309.6406939 -68.57421875 299.78125 C-67.68261654 298.20601234 -66.8094848 296.6189696 -66 295 C-65.1335083 294.99635437 -64.2670166 294.99270874 -63.37426758 294.98895264 C-55.13798943 294.95080924 -46.90209672 294.89366353 -38.66609192 294.81609726 C-34.43363071 294.77688153 -30.2013695 294.74456804 -25.96875 294.72900391 C-21.87061385 294.71366403 -17.77302854 294.67892085 -13.67514038 294.63169098 C-12.12540524 294.61705318 -10.57559138 294.60896933 -9.02578735 294.60811615 C10.69725343 294.58637458 28.55746876 290.29515847 43 276 C52.98957396 264.29029216 58.7982245 250.22110755 58.21875 234.671875 C58.1465625 233.79015625 58.074375 232.9084375 58 232 C57.9278125 231.05640625 57.855625 230.1128125 57.78125 229.140625 C55.32593227 212.3626205 44.35315758 196.78675998 35.94140625 182.3515625 C33.65756118 178.40882795 31.45248158 174.42605648 29.25 170.4375 C25.65938321 163.94676965 22.00627175 157.49503248 18.3125 151.0625 C13.60004531 142.84918874 8.96798068 134.59317028 4.375 126.3125 C4.05336884 125.73263336 3.73173767 125.15276672 3.40036011 124.55532837 C1.26511507 120.70454363 -0.8677402 116.85243829 -3 113 C-8.52483873 103.02019398 -14.08217107 93.05987449 -19.6875 83.125 C-20.24010498 82.14055908 -20.79270996 81.15611816 -21.36206055 80.1418457 C-23.65385704 76.07317404 -25.94612148 72.02266158 -28.453125 68.08203125 C-29.10796875 67.04433594 -29.7628125 66.00664062 -30.4375 64.9375 C-30.99308594 64.10089844 -31.54867187 63.26429688 -32.12109375 62.40234375 C-33.36866423 58.99231778 -32.30987487 57.34591446 -31 54 C-29.9242308 51.92355066 -28.79363759 49.8749414 -27.62109375 47.8515625 C-27.29294174 47.28149475 -26.96478973 46.711427 -26.62669373 46.12408447 C-25.56855593 44.28815964 -24.50308328 42.45661149 -23.4375 40.625 C-22.70594858 39.35857884 -21.97499401 38.09181273 -21.24462891 36.82470703 C-20.1597399 34.94268811 -19.07450463 33.06088182 -17.98718262 31.18026733 C-15.24335976 26.43364532 -12.54537226 21.66321238 -9.875 16.875 C-6.69217848 11.18310376 -3.40823777 5.56010554 0 0 Z " fill="#ffffff" transform="translate(338,151)"/>
<path d="M0 0 C0.99 0 1.98 0 3 0 C3.38220703 0.71430176 3.76441406 1.42860352 4.15820312 2.16455078 C13.29912726 19.28590515 13.29912726 19.28590515 22.81640625 36.19921875 C25.91280458 41.55935778 28.91666078 46.97207007 31.9375 52.375 C33.16534601 54.57032289 34.39321023 56.76563559 35.62109375 58.9609375 C36.20487793 60.00475586 36.78866211 61.04857422 37.39013672 62.12402344 C39.42121166 65.75248307 41.45923389 69.37698514 43.5 73 C49.02230565 82.81211546 54.53455683 92.6297463 60.02197266 102.46142578 C61.39810583 104.92545912 62.77857533 107.38700823 64.16162109 109.84716797 C66.00636838 113.12895318 67.8436694 116.41481398 69.67648315 119.70327759 C70.38545837 120.97242727 71.09694013 122.24018036 71.81106567 123.50643921 C72.81319105 125.28441311 73.80596701 127.06731858 74.796875 128.8515625 C75.65297363 130.38031006 75.65297363 130.38031006 76.52636719 131.93994141 C80.407775 139.99984293 81.15064901 147.06944256 78.4375 155.5 C75.1128676 163.89295311 70.04300437 168.93483785 62.11328125 173.08984375 C44.4608247 180.69247291 17.5889839 175.75627115 -1 175 C1.38116044 170.04059092 3.8087621 165.17244726 6.74609375 160.515625 C7.19017578 159.80792969 7.63425781 159.10023438 8.09179688 158.37109375 C9.00388196 156.93346762 9.9288275 155.50393499 10.86523438 154.08203125 C11.51782227 153.02822266 11.51782227 153.02822266 12.18359375 151.953125 C12.58118896 151.33598633 12.97878418 150.71884766 13.38842773 150.08300781 C14.54249161 146.15228008 12.41433813 142.83233084 10.67138672 139.33105469 C10.17912598 138.45352539 9.68686523 137.57599609 9.1796875 136.671875 C8.64472656 135.70765625 8.10976563 134.7434375 7.55859375 133.75 C7.00300781 132.76 6.44742188 131.77 5.875 130.75 C4.76443078 128.7677483 3.65746304 126.78347308 2.5546875 124.796875 C2.06468262 123.92385742 1.57467773 123.05083984 1.06982422 122.15136719 C0 120 0 120 0 118 C-0.66 118 -1.32 118 -2 118 C-2.25265625 118.84949219 -2.5053125 119.69898438 -2.765625 120.57421875 C-4.08351855 124.2317904 -5.80448012 127.46690454 -7.75 130.8125 C-8.56691801 132.24189514 -9.38328737 133.67160393 -10.19921875 135.1015625 C-10.87090088 136.27380371 -10.87090088 136.27380371 -11.55615234 137.46972656 C-14.25186401 142.19383136 -16.90549919 146.94154941 -19.5625 151.6875 C-20.1495874 152.73518555 -20.7366748 153.78287109 -21.34155273 154.86230469 C-26.38217755 163.86913543 -31.37021445 172.90445387 -36.34945679 181.9453125 C-40.50895918 189.49720456 -44.68477173 197.03874037 -48.92456055 204.54589844 C-52.82589012 211.45402059 -56.67070149 218.39331581 -60.51904297 225.33105469 C-63.40631719 230.53443118 -66.2972428 235.73578003 -69.1875 240.9375 C-73.11991005 248.01483748 -77.05168261 255.09252506 -80.98046875 262.171875 C-86.83934255 272.72786471 -92.70313463 283.28047767 -98.6328125 293.796875 C-101.74452917 299.31721966 -104.84054247 304.84636645 -107.9375 310.375 C-108.53675293 311.44403564 -109.13600586 312.51307129 -109.75341797 313.61450195 C-112.52174028 318.55685794 -115.28263952 323.50284702 -118.015625 328.46484375 C-118.47074463 329.29000488 -118.92586426 330.11516602 -119.39477539 330.96533203 C-120.22996631 332.48176745 -121.06266461 333.99957958 -121.89233398 335.51904297 C-122.90581185 337.35855503 -123.95112494 339.18043876 -125 341 C-125.6088781 342.08266144 -125.6088781 342.08266144 -126.23005676 343.18719482 C-128 345 -128 345 -130.82841492 345.48101807 C-131.9764711 345.47213562 -133.12452728 345.46325317 -134.30737305 345.45410156 C-135.60849533 345.45379944 -136.90961761 345.45349731 -138.25016785 345.45318604 C-139.67069102 345.43275932 -141.09120796 345.41189533 -142.51171875 345.390625 C-143.9647392 345.38316369 -145.41776972 345.37747024 -146.87080383 345.37347412 C-150.69332715 345.35820878 -154.51524153 345.3189202 -158.33752441 345.2746582 C-162.23860435 345.23372432 -166.13978278 345.21546719 -170.04101562 345.1953125 C-177.69428789 345.15242596 -185.34705859 345.08416485 -193 345 C-193 341.68347919 -192.40918084 340.55548762 -190.83203125 337.703125 C-190.35797852 336.83929199 -189.88392578 335.97545898 -189.39550781 335.08544922 C-188.87311523 334.14975098 -188.35072266 333.21405273 -187.8125 332.25 C-187.27077148 331.26918457 -186.72904297 330.28836914 -186.17089844 329.27783203 C-184.45575145 326.18040873 -182.72989709 323.089207 -181 320 C-180.21471924 318.59669434 -180.21471924 318.59669434 -179.41357422 317.16503906 C-174.37240944 308.17424375 -169.27261871 299.21713794 -164.1484375 290.2734375 C-163.14535689 288.52256032 -162.14231264 286.77166234 -161.13934326 285.02072144 C-160.46340033 283.84073959 -159.78733435 282.66082822 -159.11114502 281.48098755 C-153.39030506 271.49437364 -147.7911783 261.44456477 -142.22314453 251.37207031 C-138.52867262 244.70457284 -134.74722823 238.10438694 -130.84179688 231.55883789 C-126.62557219 224.45042798 -122.64493389 217.21148643 -118.64599609 209.97949219 C-114.48471327 202.45469619 -110.28629823 194.95443171 -106 187.5 C-101.47313997 179.62081659 -97.03144086 171.69713973 -92.625 163.75 C-91.99279541 162.61006592 -91.36059082 161.47013184 -90.70922852 160.2956543 C-89.43287191 157.99385436 -88.15658598 155.69201523 -86.88037109 153.39013672 C-79.336691 139.78957299 -71.75336645 126.22262375 -63.875 112.8125 C-58.9113932 104.36255033 -54.12656961 95.83624697 -49.46606445 87.21582031 C-44.32184601 77.70962502 -38.99286188 68.31111862 -33.65429688 58.91308594 C-30.86849146 54.00750296 -28.08979647 49.09790422 -25.3125 44.1875 C-24.77222168 43.23246582 -24.23194336 42.27743164 -23.67529297 41.29345703 C-20.32005776 35.35570126 -16.99211546 29.40355936 -13.6875 23.4375 C-10.6315505 17.92176366 -7.55741329 12.41735678 -4.4375 6.9375 C-3.79683594 5.81214844 -3.15617188 4.68679687 -2.49609375 3.52734375 C-1 1 -1 1 0 0 Z " fill="#ffffff" transform="translate(289,243)"/>
<path d="M0 0 C0.66 0 1.32 0 2 0 C2.29656494 0.57331055 2.59312988 1.14662109 2.89868164 1.73730469 C10.33142688 16.11728386 10.33142688 16.11728386 18.34033203 30.1796875 C22.74468492 37.66410711 26.74745998 45.38584471 30.84399414 53.04150391 C36.49082159 63.58428076 42.24878365 74.05073352 48.16748047 84.44311523 C52.6656951 92.35978151 57.01389827 100.35222349 61.33398438 108.3671875 C64.53780791 114.30882388 67.77244753 120.23068261 71.0625 126.125 C76.28884962 135.48936737 81.42752919 144.90120619 86.54101562 154.32763672 C87.58255418 156.2353812 88.6345026 158.13745752 89.69335938 160.03564453 C90.24314453 161.0254834 90.79292969 162.01532227 91.359375 163.03515625 C91.86436523 163.93758057 92.36935547 164.84000488 92.88964844 165.76977539 C94 168 94 168 94 170 C72.55 170 51.1 170 29 170 C24.71 162.08 20.42 154.16 16 146 C13.67864289 141.82530132 11.35268026 137.65661305 9 133.5 C4.40066139 125.33270915 -0.11932029 117.12824995 -4.5625 108.875 C-8.90948098 100.80118256 -13.34877915 92.78720794 -17.875 84.8125 C-18.41592285 83.85472656 -18.9568457 82.89695312 -19.51416016 81.91015625 C-21.79541443 77.87218773 -24.08555638 73.8426161 -26.44140625 69.84765625 C-27.10707352 68.6902782 -27.77246799 67.53274319 -28.4375 66.375 C-28.99308594 65.43398438 -29.54867188 64.49296875 -30.12109375 63.5234375 C-31 61 -31 61 -30.35546875 58.3828125 C-29.03768697 56.06625087 -27.73139691 54.39956893 -25.875 52.5 C-13.73664463 38.93212757 -6.46876468 20.58165024 -1.65625 3.203125 C-1 1 -1 1 0 0 Z " fill="#ffffff" transform="translate(482,418)"/>
</svg>
